<svg width="24" height="24" fill="none" xmlns="http://www.w3.org/2000/svg"><path fill="#E2E2E2" d="M0 0h24v24H0z"/><g clip-path="url(#a)"><path fill="#fff" d="M-1200-1003H240v2328h-1440z"/><path fill="#0A0A11" d="M-1200-276H240v573h-1440z"/><g stroke="#F3F3F3"><rect opacity=".8" x="-351.5" y="-15.5" width="399" height="55" rx="27.5" stroke-opacity=".5"/><g clip-path="url(#b)" stroke-width="1.8" stroke-linecap="round" stroke-linejoin="round"><path d="M17.94 17.94A10.07 10.07 0 0 1 12 20c-7 0-11-8-11-8a18.45 18.45 0 0 1 5.06-5.94M9.9 4.24A9.12 9.12 0 0 1 12 4c7 0 11 8 11 8a18.494 18.494 0 0 1-2.16 3.19m-6.72-1.07a2.998 2.998 0 0 1-5.194-2.098A3 3 0 0 1 9.88 9.88M1 1l22 22"/></g></g></g><defs><clipPath id="a"><path fill="#fff" transform="translate(-1200 -1003)" d="M0 0h1440v2328H0z"/></clipPath><clipPath id="b"><path fill="#fff" d="M0 0h24v24H0z"/></clipPath></defs></svg>